<svg xmlns="http://www.w3.org/2000/svg" width="512" height="512" viewBox="0 0 32 32"><g transform="translate(.001 -1020.362)"><path style="isolation:auto;mix-blend-mode:normal" fill="#576d7e" fill-rule="evenodd" d="m 11,7 0,3 -3,0 0,7 -5,0 0,15 5,0 2,0 1,0 2,0 7,0 6,0 3,0 0,-16 -3,0 0,-5 -6,0 0,-4 -9,0 z" color="#000" overflow="visible" transform="translate(0 1020.362)"/><path fill="#cad1d8" d="m 7.6562678,1021.3622 a 2.0312244,2.0312244 0 0 0 -1.643045,0.8404 1.2499863,1.2499863 0 0 0 -0.7006792,-0.2153 1.2499863,1.2499863 0 0 0 -1.2499865,1.2499 1.2499863,1.2499863 0 0 0 0.012812,0.1673 0.78124143,0.78124143 0 0 0 -0.4815884,-0.1673 0.78124143,0.78124143 0 0 0 -0.7653667,0.625 l -0.015938,0 c -0.6924925,0 -1.2499864,0.5575 -1.2499864,1.25 0,0.6924 0.5574939,1.25 1.2499864,1.25 l 6.2499321,0 c 0.6924919,0 1.2499859,-0.5576 1.2499859,-1.25 0,-0.4997 -0.292247,-0.9257 -0.714086,-1.1261 a 2.0312244,2.0312244 0 0 0 0.0891,-0.5927 2.0312244,2.0312244 0 0 0 -2.0312289,-2.0312 z"/><rect style="isolation:auto;mix-blend-mode:normal" width="6" height="16" x="7" y="1035.862" fill="#60c5b8" fill-rule="evenodd" color="#000" overflow="visible"/><rect width="8" height="2" x="6" y="1034.362" fill="#25b39e" fill-rule="evenodd" color="#000" overflow="visible" style="isolation:auto;mix-blend-mode:normal"/><path fill="none" stroke="#4bbfeb" d="m 21.999999,1032.3622 0,-3"/><path fill="none" stroke="#34485c" d="M8.4999999 1037.8622l3.0000001 0M8.4999999 1039.8622l3.0000001 0M8.4999999 1041.8622l3.0000001 0M8.4999999 1043.8622l3.0000001 0M8.4999999 1045.8622l3.0000001 0M8.4999999 1047.8622l3.0000001 0M8.4999999 1049.8622l3.0000001 0"/><path fill="#cad1d8" d="m 28.616134,1021.9336 a 1.3928549,1.3928549 0 0 0 -1.126672,0.5763 0.85714285,0.85714285 0 0 0 -0.480471,-0.1477 0.85714285,0.85714285 0 0 0 -0.857143,0.8571 0.85714285,0.85714285 0 0 0 0.0088,0.1147 0.53571429,0.53571429 0 0 0 -0.330236,-0.1147 0.53571429,0.53571429 0 0 0 -0.524829,0.4286 l -0.01093,0 c -0.474858,0 -0.857143,0.3823 -0.857143,0.8571 0,0.4749 0.382285,0.8572 0.857143,0.8572 l 4.285715,0 c 0.474857,0 0.857142,-0.3823 0.857142,-0.8572 0,-0.3426 -0.2004,-0.6347 -0.489664,-0.7722 a 1.3928549,1.3928549 0 0 0 0.06109,-0.4064 1.3928549,1.3928549 0 0 0 -1.392858,-1.3928 z"/><path fill="none" stroke="#cad1d8" d="M5.9375044 1028.3622l3 0M4.9375044 1028.3622l-.9999999 0M2.9375045 1028.3622l-1.0000001 0M14.937504 1023.8622l1 0 0 0M16.937504 1023.8622l1 0M18.937504 1023.8622l1 0M17.937504 1021.8622l4 0M22.937504 1021.8622l1 0"/><path style="isolation:auto;mix-blend-mode:normal" fill="#4bbfeb" fill-rule="evenodd" d="m 20.062495,1034.6185 0,-2.2563 3.999999,0 0,2.2563" color="#000" overflow="visible"/><rect width="6" height="17.5" x="19" y="1034.362" fill="#78c8f0" fill-rule="evenodd" color="#000" overflow="visible" style="isolation:auto;mix-blend-mode:normal"/><path fill="#4bbfeb" fill-rule="evenodd" stroke="#34485c" d="M20.999998 1035.3622l0 1M20.999998 1037.3622l0 1M20.999998 1039.3622l0 1M20.999998 1041.3622l0 1M20.999998 1043.3622l0 1M20.999998 1045.3622l0 1M20.999998 1047.3622l0 1M20.999998 1049.3622l0 1M22.999998 1035.3622l0 1M22.999998 1037.3622l0 1M22.999998 1039.3622l0 1M22.999998 1041.3622l0 1M22.999998 1043.3622l0 1M22.999998 1045.3622l0 1M22.999998 1047.3622l0 1M22.999998 1049.3622l0 1"/><path fill="none" stroke="#2b4255" d="m 1,1051.8622 29.875008,0"/></g></svg>
