<svg xmlns="http://www.w3.org/2000/svg" enable-background="new 0 0 50 50" viewBox="0 0 50 50"><g enable-background="new"><polygon fill="#5AB3BD" points="48.959 14.876 48.96 45.989 47.541 46.814 47.539 15.701"/><polygon fill="#92C5D1" points="47.539 15.701 47.541 46.814 24.928 33.759 24.927 2.646"/><polygon fill="#5AB3BD" points="24.927 2.646 24.928 33.759 2.463 46.814 2.462 15.701"/><polygon fill="#92C5D1" points="2.462 15.701 2.463 46.814 1.041 45.993 1.04 14.88"/><polygon fill="#B3E1EB" points="48.959 14.876 47.539 15.701 24.927 2.646 2.462 15.701 1.04 14.88 24.925 1"/></g><path fill="#4F4D4D" d="M22.6826,26.1145c0.4215-0.2433,0.765-0.0475,0.7664,0.4367l0.0167,6.4472l-16.2571,9.386
					l-0.0167-6.4472c-0.0014-0.4843,0.3399-1.0755,0.7614-1.3188l3.8898-2.2458c0.4258-0.2459,0.765-0.0475,0.7664,0.4367
					c-0.0014-0.4843,0.3399-1.0755,0.7614-1.3188l3.8898-2.2458c0.4215-0.2433,0.765-0.0475,0.7664,0.4367
					c-0.0014-0.4843,0.3399-1.0755,0.7614-1.3188L22.6826,26.1145z"/><path fill="#929393" d="M5.7045,35.0729c-0.0014-0.4843,0.3399-1.0754,0.7615-1.3188l3.8897-2.2458
					c0.2137-0.1234,0.4056-0.1348,0.544-0.0545l0.2745,0.1595c0.1068-0.397,0.3808-0.7974,0.7093-0.9871l3.8897-2.2457
					c0.2121-0.1224,0.4044-0.1337,0.5434-0.053l0.2748,0.1598c0.1064-0.3976,0.3805-0.7989,0.7095-0.9889l3.8941-2.2483
					c0.2121-0.1224,0.4044-0.1337,0.5434-0.0529l1.4874,0.8643l-0.0015-0.0003c-0.0446-0.0257-0.1018-0.0256-0.1561-0.0318
					c-0.0304-0.0035-0.0547-0.0202-0.0876-0.0173c-0.0876,0.0078-0.1842,0.0418-0.2848,0.0978
					c-0.0047,0.0026-0.0087,0.0019-0.0134,0.0046l-3.8941,2.2482c-0.1054,0.0608-0.2058,0.1435-0.297,0.2406
					c-0.0912,0.0972-0.1734,0.2091-0.2423,0.3284c-0.1378,0.2388-0.2229,0.5076-0.2222,0.7498
					c-0.0014-0.4804-0.3401-0.6746-0.757-0.44l-0.0011-0.0006c-0.0028,0.0016-0.0054,0.0022-0.0083,0.0038l-3.8897,2.2457
					c-0.3161,0.1825-0.5871,0.5607-0.7023,0.9427c-0.0384,0.1274-0.0595,0.255-0.0591,0.3761
					c-0.0014-0.4805-0.3359-0.6771-0.7571-0.44l-0.001-0.0006c-0.0029,0.0016-0.0055,0.0022-0.0083,0.0038l-3.8898,2.2457
					c-0.1054,0.0608-0.2057,0.1435-0.2969,0.2406c-0.1825,0.1944-0.3285,0.4474-0.4053,0.702
					c-0.0384,0.1274-0.0595,0.2551-0.0591,0.3761l0.0153,5.8914l-1.4859-0.8635L5.7045,35.0729z"/><polygon fill="#929393" points="29.873 38.386 23.48 34.671 23.466 29.777 29.86 33.492"/><path fill="#929393" d="M25.6436,27.486c-0.2321-0.1349-0.5535-0.1161-0.9078,0.0885
								c-0.7041,0.4065-1.2724,1.393-1.2701,2.2021l6.394,3.7158c-0.0023-0.8091,0.566-1.7955,1.2701-2.2021
								c0.3543-0.2046,0.6757-0.2234,0.9078-0.0885L25.6436,27.486z"/><path fill="#3D3D3D" d="M31.1298,31.2903c0.7041-0.4065,1.278-0.0795,1.2803,0.7296
									c0.0023,0.8091-0.5678,1.7966-1.272,2.2031l0.0097,3.4277l-1.2743,0.7357l-0.0139-4.8941
									C29.8574,32.6833,30.4257,31.6969,31.1298,31.2903z"/><g enable-background="new"><polygon fill="#BFBFBF" points="6.721 42.98 6.726 44.753 12.766 48.263 12.761 46.49"/><polygon fill="#3D3D3D" points="12.761 46.49 12.766 48.263 29.873 38.386 29.869 36.613"/><polygon fill="#3D3D3D" points="6.721 42.98 12.761 46.49 29.869 36.613 23.828 33.103"/></g><g enable-background="new"><path fill="#3D3D3D" d="M24.3011,37.8665l0.0045,1.8297c0.2562,0.0225,0.5215-0.0225,0.7193-0.1349l4.6483-2.6838
										c0.1663-0.0989,0.2472-0.2203,0.2472-0.3461l-0.0045-1.8342c0,0.1259-0.0809,0.2517-0.2472,0.3462l-4.6528,2.6883
										C24.8225,37.8441,24.5573,37.889,24.3011,37.8665z"/><path fill="#3D3D3D" d="M18.6952,41.1033l0.0045,1.8297c0.2562,0.0225,0.5215-0.0225,0.7193-0.1349l4.6528-2.6883
										c0.1619-0.0944,0.2428-0.2158,0.2428-0.3417l-0.0045-1.8341c0,0.1259-0.0809,0.2517-0.2472,0.3461L19.41,40.9639
										C19.2167,41.0763,18.9515,41.1212,18.6952,41.1033z"/><path fill="#4F4D4D" d="M12.6533,38.1421c0.1952-0.1127,0.4615-0.1574,0.716-0.1359
										c-0.0364-0.1475,0.0417-0.3016,0.2369-0.4143l4.6526-2.6862c0.1952-0.1127,0.4615-0.1574,0.716-0.1359
										c-0.0364-0.1475,0.0417-0.3016,0.2369-0.4143l4.6526-2.6862c0.3272-0.1889,0.8593-0.1889,1.1873,0.0017l4.6195,2.6846
										c0.3279,0.1906,0.3262,0.4988-0.001,0.6877l-4.6526,2.6862c-0.1952,0.1127-0.4615,0.1574-0.716,0.1359
										c0.0364,0.1475-0.0417,0.3016-0.2369,0.4143l-4.6526,2.6862c-0.1952,0.1127-0.4615,0.1574-0.716,0.1359
										c0.0364,0.1475-0.0418,0.3016-0.2369,0.4143l-4.6526,2.6862c-0.3272,0.1889-0.8593,0.1889-1.1873-0.0017L7.9997,41.516
										c-0.3279-0.1906-0.3262-0.4988,0.001-0.6877L12.6533,38.1421z M24.0655,37.592c0.1967,0.1143,0.5172,0.1143,0.7152,0
										l4.6526-2.6862c0.1952-0.1127,0.1962-0.2983-0.0005-0.4126l-4.6195-2.6846c-0.1968-0.1143-0.5172-0.1143-0.7124-0.0017
										l-4.6526,2.6862c-0.198,0.1143-0.1991,0.2999-0.0023,0.4143L24.0655,37.592 M12.8574,44.063
										c0.1967,0.1143,0.5172,0.1143,0.7123,0.0017l4.6526-2.6862c0.198-0.1143,0.1962-0.2983-0.0005-0.4126l-4.6195-2.6846
										c-0.1968-0.1143-0.5143-0.116-0.7123-0.0017l-4.6526,2.6862c-0.1952,0.1127-0.1962,0.2983,0.0005,0.4126L12.8574,44.063
										 M18.4629,40.8266c0.1967,0.1143,0.5143,0.116,0.7123,0.0017l4.6526-2.6862c0.1952-0.1127,0.1962-0.2983-0.0005-0.4126
										l-4.6195-2.6846c-0.1968-0.1143-0.5172-0.1143-0.7123-0.0017l-4.6526,2.6862c-0.198,0.1143-0.1962,0.2983,0.0005,0.4126
										L18.4629,40.8266"/><path fill="#686868" d="M19.4484 34.4931c-.198.1143-.1991.2999-.0023.4143l4.6195 2.6846c.1968.1143.5172.1143.7152 0l4.6526-2.6862c.1952-.1127.1962-.2983-.0005-.4126l-4.6195-2.6846c-.1968-.1143-.5172-.1143-.7123-.0017L19.4484 34.4931zM13.8429 37.7295c-.198.1143-.1962.2983.0005.4126l4.6195 2.6846c.1968.1143.5143.116.7123.0017l4.6526-2.6862c.1952-.1127.1962-.2983-.0005-.4126l-4.6195-2.6846c-.1968-.1143-.5172-.1143-.7123-.0017L13.8429 37.7295zM8.2374 40.9658c-.1952.1127-.1962.2983.0005.4126l4.6195 2.6846c.1968.1143.5172.1143.7123.0017l4.6526-2.6862c.198-.1143.1962-.2983-.0005-.4126l-4.6195-2.6846c-.1968-.1143-.5143-.116-.7123-.0017L8.2374 40.9658z"/><path fill="#3D3D3D" d="M7.7533,41.1752l0.0045,1.8297c0.0045,0.1259,0.0854,0.2472,0.2472,0.3417l4.6213,2.6883
										c0.3282,0.1888,0.8586,0.1888,1.1868,0l4.6528-2.6883c0.1618-0.0944,0.2427-0.2158,0.2427-0.3417l-0.0045-1.8341
										c0,0.1259-0.0809,0.2517-0.2472,0.3461l-4.6483,2.6838c-0.3282,0.1888-0.8631,0.1888-1.1913,0l-4.6168-2.6838
										C7.8342,41.4225,7.7533,41.2966,7.7533,41.1752z"/></g><polygon fill="#4F4D4D" points="11.49 49 5.096 45.284 5.086 41.857 11.48 45.572"/><path fill="#929393" d="M5.9859,38.8354c-0.2321-0.1349-0.5534-0.1161-0.9078,0.0885
								c-0.7041,0.4065-1.2742,1.394-1.2719,2.2031c0.0011,0.4019,0.1433,0.6849,0.3725,0.8181l6.394,3.7158
								c-0.2292-0.1332-0.3713-0.4161-0.3725-0.8181c-0.0023-0.8091,0.5678-1.7966,1.2719-2.2031
								c0.3543-0.2046,0.6757-0.2234,0.9078-0.0885L5.9859,38.8354z"/><path fill="#3D3D3D" d="M11.4721,42.6397c0.7041-0.4065,1.278-0.0795,1.2803,0.7296l0.0139,4.8941l-1.2761,0.7368
									l-0.0097-3.4277c-0.7041,0.4065-1.278,0.0795-1.2803-0.7296C10.1979,44.0337,10.768,43.0462,11.4721,42.6397z"/><polygon fill="#686868" points="24.869 13.421 20.835 11.077 21.203 10.864 25.236 13.208"/><polygon fill="#3D3D3D" points="24.916 17.645 20.883 15.302 20.835 11.077 24.869 13.421"/><polygon fill="#4F4D4D" points="25.236 13.208 25.284 17.432 24.914 17.645 24.869 13.421"/><g><polygon fill="#FDC281" points="16.749 21.941 12.697 19.589 20.86 14.87 24.894 17.214"/><polygon fill="#CC8B4F" points="16.749 21.941 16.751 22.364 24.894 17.639 24.894 17.214"/></g><g><polygon fill="#FFF" points="17.553 16.231 20.899 18.175 23.949 16.414 20.603 14.47"/><polygon fill="#B0AFB0" points="17.553 16.231 17.554 17.055 20.9 18.999 20.899 18.175"/><polygon fill="#D7D7D7" points="20.899 18.175 20.9 18.999 23.95 17.238 23.949 16.414"/></g><g><polygon fill="#FDC281" points="16.703 18.139 12.672 15.795 20.835 11.077 24.869 13.421"/><polygon fill="#CC8B4F" points="16.703 18.14 16.705 18.563 24.869 13.845 24.869 13.421"/></g><g><polygon fill="#686868" points="16.335 18.352 12.302 16.008 12.67 15.795 16.703 18.139"/><polygon fill="#3D3D3D" points="16.383 22.577 12.35 20.233 12.302 16.008 16.335 18.352"/><polygon fill="#4F4D4D" points="16.703 18.139 16.751 22.364 16.381 22.577 16.335 18.352"/></g><g><g enable-background="new"><polygon fill="#CC8B4F" points="46.049 21.625 46.047 22.442 42.045 24.768 42.047 23.95"/><polygon fill="#D89C60" points="42.047 23.95 42.045 24.768 27.961 16.636 27.963 15.819"/><polygon fill="#FDC281" points="46.049 21.625 42.047 23.95 27.963 15.819 31.965 13.493"/></g></g><g><g enable-background="new"><polygon fill="#BC2B3B" points="29.583 12.184 29.595 16.063 31.703 14.846 31.691 10.967"/><polygon fill="#FFF" points="29.583 12.434 30.115 12.742 32.223 11.525 31.691 11.217"/><polygon fill="#C5C4C4" points="29.583 12.184 29.595 16.063 30.126 16.372 30.115 12.492"/><polygon fill="#888" points="30.115 12.492 30.126 16.372 32.234 15.155 32.223 11.275"/><polygon fill="#BC2B3B" points="30.113 12.698 30.125 16.578 32.411 15.258 32.399 11.378"/><polygon fill="#DD454D" points="29.229 12.184 29.24 16.063 30.125 16.578 30.113 12.698"/><polygon fill="#EF5A5A" points="31.515 10.864 29.229 12.184 30.113 12.698 32.399 11.378 32.223 11.275 30.115 12.492 29.583 12.184 31.691 10.967"/></g><g enable-background="new"><polygon fill="#BC2B3B" points="30.986 13.017 30.998 16.896 33.106 15.679 33.094 11.8"/><polygon fill="#FFF" points="30.986 13.267 31.517 13.575 33.625 12.358 33.094 12.05"/><polygon fill="#C5C4C4" points="30.986 13.017 30.998 16.896 31.529 17.205 31.517 13.325"/><polygon fill="#888" points="31.517 13.325 31.529 17.205 33.637 15.988 33.625 12.108"/><polygon fill="#BC2B3B" points="31.516 13.531 31.528 17.41 33.814 16.091 33.802 12.211"/><polygon fill="#DD454D" points="30.631 13.017 30.643 16.896 31.528 17.41 31.516 13.531"/><polygon fill="#EF5A5A" points="32.917 11.697 30.631 13.017 31.516 13.531 33.802 12.211 33.625 12.108 31.517 13.325 30.986 13.017 33.094 11.8"/></g><g enable-background="new"><polygon fill="#BC2B3B" points="32.389 13.85 32.401 17.729 34.508 16.512 34.497 12.633"/><polygon fill="#FFF" points="32.389 14.1 32.92 14.408 35.028 13.191 34.497 12.883"/><polygon fill="#C5C4C4" points="32.389 13.85 32.401 17.729 32.932 18.038 32.92 14.158"/><polygon fill="#888" points="32.92 14.158 32.932 18.038 35.04 16.821 35.028 12.941"/><polygon fill="#BC2B3B" points="32.919 14.364 32.931 18.244 35.216 16.924 35.205 13.044"/><polygon fill="#DD454D" points="32.034 13.85 32.046 17.729 32.931 18.244 32.919 14.364"/><polygon fill="#EF5A5A" points="34.32 12.53 32.034 13.85 32.919 14.364 35.205 13.044 35.028 12.941 32.92 14.158 32.389 13.85 34.497 12.633"/></g><g enable-background="new"><polygon fill="#BC2B3B" points="33.791 14.682 33.803 18.562 35.911 17.345 35.899 13.466"/><polygon fill="#FFF" points="33.791 14.933 34.323 15.241 36.431 14.024 35.899 13.716"/><polygon fill="#C5C4C4" points="33.791 14.682 33.803 18.562 34.334 18.871 34.323 14.991"/><polygon fill="#888" points="34.323 14.991 34.334 18.871 36.442 17.654 36.431 13.774"/><polygon fill="#BC2B3B" points="34.322 15.197 34.333 19.076 36.619 17.757 36.607 13.877"/><polygon fill="#DD454D" points="33.437 14.682 33.449 18.562 34.333 19.076 34.322 15.197"/><polygon fill="#EF5A5A" points="35.723 13.363 33.437 14.682 34.322 15.197 36.607 13.877 36.431 13.774 34.323 14.991 33.791 14.682 35.899 13.466"/></g></g><g><g enable-background="new"><polygon fill="#589441" points="35.992 16.621 36.002 19.801 37.73 18.803 37.72 15.623"/><polygon fill="#FFF" points="35.992 16.826 36.428 17.079 38.156 16.081 37.72 15.828"/><polygon fill="#C5C4C4" points="35.992 16.621 36.002 19.801 36.438 20.054 36.428 16.874"/><polygon fill="#888" points="36.428 16.874 36.438 20.054 38.165 19.056 38.156 15.876"/><polygon fill="#589441" points="36.427 17.042 36.437 20.223 38.31 19.141 38.301 15.96"/><polygon fill="#80BC41" points="35.702 16.621 35.711 19.801 36.437 20.223 36.427 17.042"/><polygon fill="#A9C838" points="37.575 15.539 35.702 16.621 36.427 17.042 38.301 15.96 38.156 15.876 36.428 16.874 35.992 16.621 37.72 15.623"/></g></g><g><g enable-background="new"><polygon fill="#3D3D3D" points="38.023 17.123 38.035 21.003 40.143 19.786 40.131 15.906"/><polygon fill="#FFF" points="38.023 17.373 38.554 17.682 40.662 16.465 40.131 16.156"/><polygon fill="#C5C4C4" points="38.023 17.123 38.035 21.003 38.566 21.311 38.554 17.432"/><polygon fill="#888" points="38.554 17.432 38.566 21.311 40.674 20.094 40.662 16.215"/><polygon fill="#3D3D3D" points="38.553 17.637 38.565 21.517 40.851 20.197 40.839 16.317"/><polygon fill="#686868" points="37.668 17.123 37.68 21.003 38.565 21.517 38.553 17.637"/><polygon fill="#929393" points="39.954 15.803 37.668 17.123 38.553 17.637 40.839 16.317 40.662 16.215 38.554 17.432 38.023 17.123 40.131 15.906"/></g><g enable-background="new"><polygon fill="#3D3D3D" points="39.426 17.956 39.438 21.836 41.545 20.619 41.534 16.739"/><polygon fill="#FFF" points="39.426 18.206 39.957 18.515 42.065 17.298 41.534 16.989"/><polygon fill="#C5C4C4" points="39.426 17.956 39.438 21.836 39.969 22.144 39.957 18.265"/><polygon fill="#888" points="39.957 18.265 39.969 22.144 42.077 20.927 42.065 17.048"/><polygon fill="#3D3D3D" points="39.956 18.47 39.968 22.35 42.254 21.03 42.242 17.15"/><polygon fill="#686868" points="39.071 17.956 39.083 21.836 39.968 22.35 39.956 18.47"/><polygon fill="#929393" points="41.357 16.636 39.071 17.956 39.956 18.47 42.242 17.15 42.065 17.048 39.957 18.265 39.426 17.956 41.534 16.739"/></g><g enable-background="new"><polygon fill="#3D3D3D" points="40.828 18.789 40.84 22.669 42.948 21.452 42.936 17.572"/><polygon fill="#FFF" points="40.828 19.039 41.36 19.348 43.468 18.131 42.936 17.822"/><polygon fill="#C5C4C4" points="40.828 18.789 40.84 22.669 41.371 22.977 41.36 19.098"/><polygon fill="#888" points="41.36 19.098 41.371 22.977 43.479 21.76 43.468 17.881"/><polygon fill="#3D3D3D" points="41.359 19.303 41.37 23.183 43.656 21.863 43.645 17.983"/><polygon fill="#686868" points="40.474 18.789 40.486 22.669 41.37 23.183 41.359 19.303"/><polygon fill="#929393" points="42.76 17.469 40.474 18.789 41.359 19.303 43.645 17.983 43.468 17.881 41.36 19.098 40.828 18.789 42.936 17.572"/></g></g><g><g enable-background="new"><path fill="#EF5A5A" d="M26.7287 34.3476l-2.448-1.4226c.0427.0249.0695.0773.0697.1527.0002.0749-.0262.1581-.0686.2321-.0429.0743-.1018.1389-.1674.1768l2.448 1.4226c.0656-.0379.1245-.1025.1674-.1768.0424-.074.0689-.1572.0686-.2321C26.7982 34.4249 26.7714 34.3725 26.7287 34.3476zM22.459 34.4704c0 .0076.0028.0132.0076.016l2.448 1.4227c-.0049-.0028-.0076-.0083-.0076-.016 0-.0153.0111-.0347.025-.0424l.0458-.0271 1.5845-.9142-2.448-1.4227-1.5845.9142-.0458.0271C22.4702 34.4357 22.459 34.4551 22.459 34.4704z"/><polygon fill="#D7D7D7" points="24.897 35.233 22.529 33.857 22.53 34.401 24.898 35.778"/><polygon fill="#704E2C" points="26.561 34.365 24.113 32.942 22.529 33.857 24.977 35.28"/><path fill="#704E2C" d="M26.5606,34.3078l-0.0492,0.0284l-2.3986-1.3939c0.0656-0.0379,0.1247-0.0419,0.1679-0.0173
						l2.3352,1.3571C26.598,34.2884,26.5796,34.2969,26.5606,34.3078z"/><path fill="#FFF" d="M24.897,35.2333l0.0015,0.5443l1.5842-0.9147c0.0656-0.0379,0.1245-0.1025,0.1674-0.1768
						c0.0424-0.074,0.0689-0.1572,0.0686-0.2321c-0.0002-0.0754-0.027-0.1278-0.0697-0.1527
						c-0.0432-0.0246-0.1022-0.0206-0.1679,0.0173L24.897,35.2333z"/></g><path fill="#EF5A5A" d="M22.4577,33.8695c0,0.0076,0.0028,0.0132,0.0069,0.016l2.448,1.4227
				c-0.0042-0.0028-0.0069-0.0083-0.0069-0.016c0-0.016,0.0111-0.0354,0.0243-0.0431l1.6304-0.9413
				c0.0799-0.0458,0.1514-0.05,0.2035-0.0201l-2.448-1.4227c-0.0521-0.0299-0.1237-0.0257-0.2035,0.0201l-1.6304,0.9413
				C22.4688,33.8348,22.4577,33.8535,22.4577,33.8695z"/><path fill="#BC2B3B" d="M24.9303,35.2491c-0.0137,0.0079-0.0248,0.0271-0.0248,0.0429c0,0.0158,0.0112,0.0221,0.0249,0.0142
				l0.0461-0.0266l1.5842-0.9147c0.0656-0.0379,0.1247-0.0419,0.1679-0.0173c0.0427,0.0249,0.0695,0.0773,0.0697,0.1527
				c0.0002,0.0749-0.0262,0.1581-0.0686,0.2321c-0.0429,0.0743-0.1018,0.1389-0.1674,0.1768l-1.5842,0.9147l-0.0461,0.0266
				c-0.0137,0.0079-0.0248,0.0271-0.0248,0.0424c0,0.0158,0.0112,0.0221,0.0249,0.0142l1.6304-0.9413
				c0.1579-0.0912,0.2857-0.3124,0.2851-0.4939c-0.0005-0.1819-0.1291-0.2552-0.287-0.1641L24.9303,35.2491z"/><path fill="#3D3D3D" d="M24.1123,32.8852c0.0799-0.0458,0.1514-0.05,0.2035-0.0201l2.448,1.4227
				c-0.0521-0.0299-0.1237-0.0257-0.2035,0.0201l-0.167,0.0964l-2.448-1.4227L24.1123,32.8852z"/></g></svg>